<?xml version="1.0" encoding="UTF-8" standalone="no"?>
<!-- Created with Inkscape (http://www.inkscape.org/) -->

<svg
   width="8.5in"
   height="11in"
   viewBox="0 0 215.9 279.4"
   version="1.1"
   id="svg1"
   inkscape:version="1.3 (0e150ed, 2023-07-21)"
   sodipodi:docname="Empty_F.svg"
   xmlns:inkscape="http://www.inkscape.org/namespaces/inkscape"
   xmlns:sodipodi="http://sodipodi.sourceforge.net/DTD/sodipodi-0.dtd"
   xmlns="http://www.w3.org/2000/svg"
   xmlns:svg="http://www.w3.org/2000/svg">
  <sodipodi:namedview
     id="namedview1"
     pagecolor="#ffffff"
     bordercolor="#000000"
     borderopacity="0.25"
     inkscape:showpageshadow="2"
     inkscape:pageopacity="0.0"
     inkscape:pagecheckerboard="0"
     inkscape:deskcolor="#d1d1d1"
     inkscape:document-units="in"
     showgrid="true"
     inkscape:zoom="0.7405303"
     inkscape:cx="407.81586"
     inkscape:cy="530.70077"
     inkscape:window-width="1392"
     inkscape:window-height="925"
     inkscape:window-x="244"
     inkscape:window-y="43"
     inkscape:window-maximized="0"
     inkscape:current-layer="layer1">
    <inkscape:grid
       id="grid1"
       units="in"
       originx="0"
       originy="0"
       spacingx="25.4"
       spacingy="25.4"
       empcolor="#0099e5"
       empopacity="0.30196078"
       color="#0099e5"
       opacity="0.14901961"
       empspacing="5"
       dotted="false"
       gridanglex="30"
       gridanglez="30"
       visible="true" />
  </sodipodi:namedview>
  <defs
     id="defs1" />
  <g
     inkscape:label="Layer 1"
     inkscape:groupmode="layer"
     id="layer1">
    <path
       id="rect1"
       style="fill-rule:evenodd;stroke:#000000;stroke-width:0.264583"
       d="M 50.985097,50.799999 H 177.6149 c 0.10255,0 0.1851,0.08255 0.1851,0.185098 v 25.029804 c 0,0.102544 -0.0825,0.185098 -0.1851,0.185098 H 50.985097 c -0.102544,0 -0.185098,-0.08255 -0.185098,-0.185098 V 50.985097 c 0,-0.102544 0.08255,-0.185098 0.185098,-0.185098 z" />
    <path
       id="rect2"
       style="fill-rule:evenodd;stroke:#000000;stroke-width:0.264583"
       d="m 152.58509,76.199997 h 25.02981 c 0.10254,0 0.18509,0.08255 0.18509,0.185098 V 101.4149 c 0,0.10254 -0.0825,0.1851 -0.18509,0.1851 h -25.02981 c -0.10254,0 -0.1851,-0.0826 -0.1851,-0.1851 V 76.385095 c 0,-0.102544 0.0826,-0.185098 0.1851,-0.185098 z" />
    <path
       id="rect3"
       style="fill-rule:evenodd;stroke:#000000;stroke-width:0.264583"
       d="M 76.385095,76.199997 H 101.4149 c 0.10254,0 0.1851,0.08255 0.1851,0.185098 V 177.6149 c 0,0.10254 -0.0826,0.1851 -0.1851,0.1851 H 76.385095 c -0.102544,0 -0.185098,-0.0826 -0.185098,-0.1851 V 76.385095 c 0,-0.102544 0.08255,-0.185098 0.185098,-0.185098 z" />
    <path
       id="rect4"
       style="fill-rule:evenodd;stroke:#000000;stroke-width:0.264583"
       d="M 50.985097,152.39999 H 126.8149 c 0.10254,0 0.1851,0.0826 0.1851,0.1851 v 25.02981 c 0,0.10254 -0.0826,0.18509 -0.1851,0.18509 H 50.985097 c -0.102544,0 -0.185098,-0.0825 -0.185098,-0.18509 v -25.02981 c 0,-0.10254 0.08255,-0.1851 0.185098,-0.1851 z" />
    <path
       id="rect5"
       style="fill-rule:evenodd;stroke:#000000;stroke-width:0.264583"
       d="m 101.7851,101.6 h 25.0298 c 0.10254,0 0.1851,0.0826 0.1851,0.1851 v 25.0298 c 0,0.10254 -0.0826,0.1851 -0.1851,0.1851 h -25.0298 c -0.10255,0 -0.1851,-0.0826 -0.1851,-0.1851 v -25.0298 c 0,-0.10255 0.0826,-0.1851 0.1851,-0.1851 z" />
  </g>
</svg>
