<?xml version="1.0" encoding="UTF-8" standalone="no"?>
<!-- Created with Inkscape (http://www.inkscape.org/) -->

<svg
   width="8.5in"
   height="11in"
   viewBox="0 0 215.9 279.4"
   version="1.1"
   id="svg1"
   inkscape:version="1.3 (0e150ed, 2023-07-21)"
   sodipodi:docname="Empty_C.svg"
   xmlns:inkscape="http://www.inkscape.org/namespaces/inkscape"
   xmlns:sodipodi="http://sodipodi.sourceforge.net/DTD/sodipodi-0.dtd"
   xmlns="http://www.w3.org/2000/svg"
   xmlns:svg="http://www.w3.org/2000/svg">
  <sodipodi:namedview
     id="namedview1"
     pagecolor="#ffffff"
     bordercolor="#000000"
     borderopacity="0.25"
     inkscape:showpageshadow="2"
     inkscape:pageopacity="0.0"
     inkscape:pagecheckerboard="0"
     inkscape:deskcolor="#d1d1d1"
     inkscape:document-units="in"
     showgrid="true"
     inkscape:zoom="0.7405303"
     inkscape:cx="407.81586"
     inkscape:cy="555.00767"
     inkscape:window-width="1392"
     inkscape:window-height="925"
     inkscape:window-x="264"
     inkscape:window-y="35"
     inkscape:window-maximized="0"
     inkscape:current-layer="layer1">
    <inkscape:grid
       id="grid1"
       units="in"
       originx="0"
       originy="0"
       spacingx="25.4"
       spacingy="25.4"
       empcolor="#0099e5"
       empopacity="0.30196078"
       color="#0099e5"
       opacity="0.14901961"
       empspacing="5"
       dotted="false"
       gridanglex="30"
       gridanglez="30"
       visible="true" />
  </sodipodi:namedview>
  <defs
     id="defs1" />
  <g
     inkscape:label="Layer 1"
     inkscape:groupmode="layer"
     id="layer1">
    <path
       id="path1"
       style="fill-rule:evenodd;stroke:#000000;stroke-width:0.264583;fill:#000000"
       d="M 113.7636 76.335909 A 63.5 63.5 0 0 0 50.933842 140.27826 A 63.5 63.5 0 0 0 114.65553 203.33229 A 63.5 63.5 0 0 0 176.51842 152.4 L 150.36136 152.4 A 38.099998 38.099998 0 0 1 114.56665 177.93229 A 38.099998 38.099998 0 0 1 76.333842 140.09998 A 38.099998 38.099998 0 0 1 114.03128 101.73488 L 114.0318 101.73488 A 38.099998 38.099998 0 0 1 150.24819 127 L 176.47605 127 A 63.5 63.5 0 0 0 113.7636 76.335909 z " />
    <path
       id="rect4"
       style="fill-rule:evenodd;stroke:#000000;stroke-width:0.264583"
       d="m 152.58509,76.199997 h 25.02981 c 0.10254,0 0.18509,0.08255 0.18509,0.185098 V 126.8149 c 0,0.10254 -0.0825,0.1851 -0.18509,0.1851 h -25.02981 c -0.10254,0 -0.1851,-0.0826 -0.1851,-0.1851 V 76.385095 c 0,-0.102544 0.0826,-0.185098 0.1851,-0.185098 z" />
  </g>
</svg>
