<?xml version="1.0" encoding="UTF-8" standalone="no"?>
<!-- Created with Inkscape (http://www.inkscape.org/) -->

<svg
   width="8.5in"
   height="11in"
   viewBox="0 0 215.9 279.4"
   version="1.1"
   id="svg1"
   inkscape:version="1.3 (0e150ed, 2023-07-21)"
   sodipodi:docname="Empty_P.svg"
   xmlns:inkscape="http://www.inkscape.org/namespaces/inkscape"
   xmlns:sodipodi="http://sodipodi.sourceforge.net/DTD/sodipodi-0.dtd"
   xmlns="http://www.w3.org/2000/svg"
   xmlns:svg="http://www.w3.org/2000/svg">
  <sodipodi:namedview
     id="namedview1"
     pagecolor="#ffffff"
     bordercolor="#000000"
     borderopacity="0.25"
     inkscape:showpageshadow="2"
     inkscape:pageopacity="0.0"
     inkscape:pagecheckerboard="0"
     inkscape:deskcolor="#d1d1d1"
     inkscape:document-units="in"
     showgrid="true"
     inkscape:zoom="0.74431818"
     inkscape:cx="373.49618"
     inkscape:cy="541.43511"
     inkscape:window-width="1392"
     inkscape:window-height="929"
     inkscape:window-x="274"
     inkscape:window-y="57"
     inkscape:window-maximized="0"
     inkscape:current-layer="layer1">
    <inkscape:grid
       id="grid1"
       units="in"
       originx="0"
       originy="0"
       spacingx="25.4"
       spacingy="25.4"
       empcolor="#0099e5"
       empopacity="0.30196078"
       color="#0099e5"
       opacity="0.14901961"
       empspacing="5"
       dotted="false"
       gridanglex="30"
       gridanglez="30"
       visible="true" />
  </sodipodi:namedview>
  <defs
     id="defs1" />
  <g
     inkscape:label="Layer 1"
     inkscape:groupmode="layer"
     id="layer1">
    <path
       id="rect5"
       style="fill-rule:evenodd;stroke:#000000;stroke-width:0.264583"
       d="M 50.985002 50.8 C 50.882454 50.8 50.8 50.882458 50.8 50.985002 L 50.8 76.014998 C 50.8 76.117546 50.882458 76.2 50.985002 76.2 L 76.385002 76.2 L 76.570003 76.2 C 76.467455 76.2 76.385002 76.282458 76.385002 76.385002 L 76.385002 101.73229 C 76.303105 101.73229 76.246229 101.67343 76.221704 101.6 L 76.014998 101.6 C 76.117542 101.6 76.2 101.6825 76.2 101.785 L 76.2 126.815 C 76.2 126.91754 76.117546 127 76.014998 127 L 76.385002 127 L 76.385002 152.4 L 50.985002 152.4 C 50.882454 152.4 50.8 152.48246 50.8 152.585 L 50.8 177.74729 C 50.8 177.84988 50.882458 177.93229 50.985002 177.93229 L 126.00678 177.93229 C 126.10938 177.93229 126.1923 177.84983 126.1923 177.74729 L 126.1923 152.585 C 126.1923 152.4825 126.10933 152.4 126.00678 152.4 L 101.6 152.4 L 101.6 127 L 137.75283 127 A 38.099998 38.099998 0 0 0 139.70155 127.13229 A 38.099998 38.099998 0 0 0 177.66771 89.032292 L 177.66409 88.497441 A 38.099998 38.099998 0 0 0 139.1667 50.934359 A 38.099998 38.099998 0 0 0 138.82874 50.962264 L 138.6334 50.8 L 50.985002 50.8 z M 101.415 76.2 L 103.79573 76.2 L 139.42715 76.2 C 139.5171 76.2 139.58177 76.268131 139.59871 76.352962 A 12.7 12.7 0 0 1 152.26667 88.854008 L 152.26771 89.032292 A 12.7 12.7 0 0 1 139.61215 101.73229 A 12.7 12.7 0 0 1 139.47056 101.7142 C 139.45491 101.71847 139.44419 101.73229 139.42715 101.73229 L 101.6 101.73229 L 101.6 76.385002 C 101.6 76.282454 101.51754 76.2 101.415 76.2 z " />
  </g>
</svg>
