<?xml version="1.0" encoding="UTF-8" standalone="no"?>
<!-- Created with Inkscape (http://www.inkscape.org/) -->

<svg
   width="8.5in"
   height="11in"
   viewBox="0 0 215.9 279.4"
   version="1.1"
   id="svg1"
   inkscape:version="1.3 (0e150ed, 2023-07-21)"
   sodipodi:docname="Empty_D.svg"
   xmlns:inkscape="http://www.inkscape.org/namespaces/inkscape"
   xmlns:sodipodi="http://sodipodi.sourceforge.net/DTD/sodipodi-0.dtd"
   xmlns="http://www.w3.org/2000/svg"
   xmlns:svg="http://www.w3.org/2000/svg">
  <sodipodi:namedview
     id="namedview1"
     pagecolor="#ffffff"
     bordercolor="#000000"
     borderopacity="0.25"
     inkscape:showpageshadow="2"
     inkscape:pageopacity="0.0"
     inkscape:pagecheckerboard="0"
     inkscape:deskcolor="#d1d1d1"
     inkscape:document-units="in"
     showgrid="true"
     inkscape:zoom="0.70021044"
     inkscape:cx="468.43061"
     inkscape:cy="429.87077"
     inkscape:window-width="1392"
     inkscape:window-height="929"
     inkscape:window-x="349"
     inkscape:window-y="25"
     inkscape:window-maximized="0"
     inkscape:current-layer="layer1">
    <inkscape:grid
       id="grid1"
       units="in"
       originx="0"
       originy="0"
       spacingx="25.4"
       spacingy="25.4"
       empcolor="#0099e5"
       empopacity="0.30196078"
       color="#0099e5"
       opacity="0.14901961"
       empspacing="5"
       dotted="false"
       gridanglex="30"
       gridanglez="30"
       visible="true" />
  </sodipodi:namedview>
  <defs
     id="defs1" />
  <g
     inkscape:label="Layer 1"
     inkscape:groupmode="layer"
     id="layer1">
    <path
       id="rect7"
       style="fill-rule:evenodd;stroke:#000000;stroke-width:0.264583;fill:#000000"
       d="M 50.985002,76.2 C 50.882454,76.2 50.8,76.282458 50.8,76.385002 V 101.415 c 0,0.1025 0.08246,0.185 0.185002,0.185 h 12.943396 50.559192 c 0.0335,0 0.0582,0.0202 0.0853,0.0357 a 38.099998,38.099998 0 0 1 38.06228,37.52949 l 0.004,0.53485 a 38.099998,38.099998 0 0 1 -37.96616,38.1 38.099998,38.099998 0 0 1 -0.154,-0.0129 c -0.0115,0.002 -0.0188,0.0129 -0.031,0.0129 H 50.985002 C 50.882458,177.8 50.8,177.7175 50.8,177.615 v -0.37569 c -0.07342,0.0245 -0.132292,0.0814 -0.132292,0.1633 v 25.70231 c 0,0.1025 0.08246,0.185 0.185002,0.185 h 63.74546 c 0.008,-0.004 0.0204,-0.0102 0.0269,-0.014 -0.0533,-0.0328 0.0379,-0.0705 0.0667,-0.0656 0.0173,0.003 0.009,0.0218 -0.0667,0.0656 0.008,0.005 0.0208,0.009 0.0357,0.014 h 0.58756 l 0.77567,-0.26717 c 13.64146,-0.31568 26.21683,-4.92372 36.41431,-12.54755 l 0.094,-0.0326 v -0.0346 c 15.40421,-11.56017 25.3659,-29.97405 25.3659,-50.70802 l -0.006,-0.88935 c -0.48533,-34.564 -28.56495,-62.292298 -63.00804,-62.469057 -0.11312,-6.04e-4 -0.22677,0.001 -0.34003,0.001 L 114.11448,76.2 Z" />
    <path
       id="rect9"
       style="fill-rule:evenodd;stroke:#000000;stroke-width:0.264583"
       d="M 76.385095,101.6 H 101.4149 c 0.10254,0 0.1851,0.0826 0.1851,0.1851 v 75.8298 c 0,0.10254 -0.0826,0.1851 -0.1851,0.1851 H 76.385095 c -0.102544,0 -0.185098,-0.0826 -0.185098,-0.1851 v -75.8298 c 0,-0.10255 0.08255,-0.1851 0.185098,-0.1851 z" />
  </g>
</svg>
