<?xml version="1.0" encoding="UTF-8" standalone="no"?>
<!-- Created with Inkscape (http://www.inkscape.org/) -->

<svg
   width="8.5in"
   height="11in"
   viewBox="0 0 215.9 279.4"
   version="1.1"
   id="svg1"
   inkscape:version="1.3 (0e150ed, 2023-07-21)"
   sodipodi:docname="Empty_O.svg"
   xmlns:inkscape="http://www.inkscape.org/namespaces/inkscape"
   xmlns:sodipodi="http://sodipodi.sourceforge.net/DTD/sodipodi-0.dtd"
   xmlns="http://www.w3.org/2000/svg"
   xmlns:svg="http://www.w3.org/2000/svg">
  <sodipodi:namedview
     id="namedview1"
     pagecolor="#ffffff"
     bordercolor="#000000"
     borderopacity="0.25"
     inkscape:showpageshadow="2"
     inkscape:pageopacity="0.0"
     inkscape:pagecheckerboard="0"
     inkscape:deskcolor="#d1d1d1"
     inkscape:document-units="in"
     showgrid="true"
     inkscape:zoom="0.74431818"
     inkscape:cx="365.43511"
     inkscape:cy="479.63359"
     inkscape:window-width="1392"
     inkscape:window-height="929"
     inkscape:window-x="331"
     inkscape:window-y="48"
     inkscape:window-maximized="0"
     inkscape:current-layer="layer1">
    <inkscape:grid
       id="grid1"
       units="in"
       originx="0"
       originy="0"
       spacingx="25.4"
       spacingy="25.4"
       empcolor="#0099e5"
       empopacity="0.30196078"
       color="#0099e5"
       opacity="0.14901961"
       empspacing="5"
       dotted="false"
       gridanglex="30"
       gridanglez="30"
       visible="true" />
  </sodipodi:namedview>
  <defs
     id="defs1" />
  <g
     inkscape:label="Layer 1"
     inkscape:groupmode="layer"
     id="layer1">
    <path
       id="path1"
       style="fill:#000000;fill-rule:evenodd;stroke:#000000;stroke-width:0.264583"
       d="m 113.49902,50.935888 a 63.5,63.5 0 0 0 -62.829762,63.942352 63.5,63.5 0 0 0 63.721702,63.05403 63.5,63.5 0 0 0 63.27675,-63.5 l -0.006,-0.89141 A 63.5,63.5 0 0 0 113.49902,50.935888 Z m 0.26768,25.39845 a 38.099998,38.099998 0 0 1 38.4974,37.563082 l 0.004,0.53485 a 38.099998,38.099998 0 0 1 -37.96615,38.1 A 38.099998,38.099998 0 0 1 76.068741,114.69996 38.099998,38.099998 0 0 1 113.7667,76.334338 Z" />
  </g>
</svg>
