<?xml version="1.0" encoding="UTF-8" standalone="no"?>
<!-- Created with Inkscape (http://www.inkscape.org/) -->

<svg
   width="8.5in"
   height="11in"
   viewBox="0 0 215.9 279.4"
   version="1.1"
   id="svg1"
   inkscape:version="1.3 (0e150ed, 2023-07-21)"
   sodipodi:docname="Empty_Z.svg"
   xmlns:inkscape="http://www.inkscape.org/namespaces/inkscape"
   xmlns:sodipodi="http://sodipodi.sourceforge.net/DTD/sodipodi-0.dtd"
   xmlns="http://www.w3.org/2000/svg"
   xmlns:svg="http://www.w3.org/2000/svg">
  <sodipodi:namedview
     id="namedview1"
     pagecolor="#ffffff"
     bordercolor="#000000"
     borderopacity="0.25"
     inkscape:showpageshadow="2"
     inkscape:pageopacity="0.0"
     inkscape:pagecheckerboard="0"
     inkscape:deskcolor="#d1d1d1"
     inkscape:document-units="in"
     showgrid="true"
     inkscape:zoom="0.7405303"
     inkscape:cx="451.02813"
     inkscape:cy="355.1509"
     inkscape:window-width="1392"
     inkscape:window-height="925"
     inkscape:window-x="364"
     inkscape:window-y="25"
     inkscape:window-maximized="0"
     inkscape:current-layer="layer1">
    <inkscape:grid
       id="grid1"
       units="in"
       originx="0"
       originy="0"
       spacingx="25.4"
       spacingy="25.4"
       empcolor="#0099e5"
       empopacity="0.30196078"
       color="#0099e5"
       opacity="0.14901961"
       empspacing="5"
       dotted="false"
       gridanglex="30"
       gridanglez="30"
       visible="true" />
  </sodipodi:namedview>
  <defs
     id="defs1" />
  <g
     inkscape:label="Layer 1"
     inkscape:groupmode="layer"
     id="layer1">
    <path
       id="rect1"
       style="fill-rule:evenodd;stroke:#000000;stroke-width:0.264583"
       d="M 50.985002 50.8 C 50.882454 50.8 50.8 50.882458 50.8 50.985002 L 50.8 76.014998 C 50.8 76.117546 50.882458 76.2 50.985002 76.2 C 50.882454 76.2 50.8 76.282458 50.8 76.385002 L 50.8 101.415 C 50.8 101.5175 50.882458 101.6 50.985002 101.6 L 76.014998 101.6 C 76.117546 101.6 76.2 101.51754 76.2 101.415 L 76.2 76.385002 C 76.2 76.282454 76.117542 76.2 76.014998 76.2 L 139.54497 76.2 L 51.125562 152.27908 C 51.088467 152.31099 51.069533 152.35511 51.064583 152.4 L 50.985002 152.4 C 50.882454 152.4 50.8 152.48246 50.8 152.585 L 50.8 177.615 C 50.8 177.71759 50.882458 177.8 50.985002 177.8 L 177.615 177.8 C 177.7176 177.8 177.8 177.71754 177.8 177.615 L 177.8 152.585 C 177.8 152.4825 177.71755 152.4 177.615 152.4 C 177.71759 152.4 177.8 152.31755 177.8 152.215 L 177.8 127.185 C 177.8 127.0824 177.71754 127 177.615 127 L 152.585 127 C 152.4825 127 152.4 127.08245 152.4 127.185 L 152.4 152.215 C 152.4 152.3176 152.48246 152.4 152.585 152.4 L 89.928878 152.4 L 177.8 76.792212 L 177.8 76.385002 L 177.8 76.2 C 177.69745 76.2 177.615 76.117546 177.615 76.014998 L 177.615 50.985002 C 177.615 50.920964 177.64905 50.867832 177.6982 50.834623 C 177.67164 50.819926 177.64764 50.8 177.615 50.8 L 50.985002 50.8 z " />
  </g>
</svg>
